# xmcd
#
# Track frame offsets:
#  150
#  26659
#  44188
#  67720
#  90544
#  113627
#  133645
#  153745
#
# Disc length: 2379 seconds
#
# Revision: 0
# Processed by: cddbd v1.5.1PL2 Copyright (c) Steve Scherf et al.
# Submitted via: Collectorz.com_Music_Collector 6.11
#
DISCID=66094908
DTITLE=Francone Lalande - Kiltir Kreol - Nouvo simin
DYEAR=1900
DGENRE=Sega
TTITLE0=Nou folklor
TTITLE1=Marizanne
TTITLE2=lamour eternel
TTITLE3=Sentiment
TTITLE4=Amoureux
TTITLE5=Kiltir kreol
TTITLE6=La paix
TTITLE7=Non la violence
EXTD=
EXTT0=
EXTT1=
EXTT2=
EXTT3=
EXTT4=
EXTT5=
EXTT6=
EXTT7=
PLAYORDER=
